<?xml version="1.0" standalone="no"?>
<!DOCTYPE svg PUBLIC "-//W3C//DTD SVG 20010904//EN"
 "http://www.w3.org/TR/2001/REC-SVG-20010904/DTD/svg10.dtd">
<svg version="1.0" xmlns="http://www.w3.org/2000/svg"
 width="1024.000000pt" height="1024.000000pt" viewBox="0 0 1024.000000 1024.000000"
 preserveAspectRatio="xMidYMid meet">

<g transform="translate(0.000000,1024.000000) scale(0.100000,-0.100000)"
fill="#000000" stroke="none">
<path d="M1429 6233 c-13 -16 -12 -17 4 -4 9 7 17 15 17 17 0 8 -8 3 -21 -13z"/>
<path d="M4090 5205 l0 -665 130 0 130 0 2 305 3 306 236 -303 235 -303 157
-3 c86 -1 157 0 157 3 0 5 -68 91 -432 554 l-107 135 33 41 c18 22 124 157
236 300 111 143 209 268 218 278 14 16 7 17 -135 17 l-150 0 -174 -227 c-96
-125 -196 -256 -224 -292 l-50 -66 -3 293 -2 292 -130 0 -130 0 0 -665z"/>
<path d="M5820 5206 l0 -666 125 0 125 0 2 238 3 237 150 2 c83 2 173 8 202
14 124 25 248 122 298 231 98 215 7 472 -203 571 l-67 32 -317 3 -318 3 0
-665z m553 452 c190 -57 189 -371 -1 -428 -20 -7 -97 -14 -169 -17 l-133 -6 0
232 0 231 131 0 c74 0 149 -5 172 -12z"/>
<path d="M2791 5834 c0 -11 3 -14 6 -6 3 7 2 16 -1 19 -3 4 -6 -2 -5 -13z"/>
<path d="M1671 5774 c0 -11 3 -14 6 -6 3 7 2 16 -1 19 -3 4 -6 -2 -5 -13z"/>
<path d="M7930 5640 l0 -130 -85 0 -85 0 0 -95 0 -95 85 0 85 0 0 -278 c0
-331 5 -360 79 -434 63 -63 130 -83 255 -75 88 5 146 17 175 36 12 8 10 23 -9
101 -22 83 -26 91 -45 85 -43 -14 -140 -16 -165 -3 -54 28 -60 60 -60 326 l0
242 120 0 120 0 0 79 c0 44 3 86 6 95 5 14 -9 16 -120 16 l-126 0 0 130 0 130
-115 0 -115 0 0 -130z"/>
<path d="M2311 5694 c0 -11 3 -14 6 -6 3 7 2 16 -1 19 -3 4 -6 -2 -5 -13z"/>
<path d="M2151 5614 c0 -11 3 -14 6 -6 3 7 2 16 -1 19 -3 4 -6 -2 -5 -13z"/>
<path d="M7153 5525 c-169 -46 -295 -184 -332 -363 -26 -124 -5 -297 49 -401
28 -56 101 -132 161 -168 136 -81 362 -85 494 -8 41 25 145 126 145 142 0 4
-34 30 -76 56 l-75 48 -39 -35 c-54 -49 -94 -67 -159 -73 -107 -10 -188 30
-234 114 -15 28 -30 72 -33 97 l-7 46 320 0 321 0 6 31 c16 81 -5 224 -46 308
-81 169 -298 259 -495 206z m193 -186 c56 -17 124 -109 124 -169 0 -19 -6 -20
-206 -20 l-206 0 6 33 c10 48 57 118 95 140 61 36 109 40 187 16z"/>
<path d="M8788 5531 c-20 -4 -66 -22 -102 -40 -104 -51 -156 -136 -156 -257 0
-148 74 -218 295 -278 190 -52 225 -74 225 -141 0 -66 -102 -113 -203 -94 -69
12 -111 35 -152 81 l-36 40 -55 -33 c-89 -55 -108 -72 -100 -97 20 -63 149
-150 256 -173 80 -17 244 -7 311 20 124 48 199 150 199 271 0 95 -14 133 -70
189 -55 55 -140 93 -296 130 -106 26 -151 50 -160 86 -16 65 48 119 142 118
76 0 119 -19 164 -70 l40 -46 62 33 c105 55 101 50 77 98 -62 126 -259 198
-441 163z"/>
<path d="M951 5504 c0 -11 3 -14 6 -6 3 7 2 16 -1 19 -3 4 -6 -2 -5 -13z"/>
<path d="M941 5464 c0 -11 3 -14 6 -6 3 7 2 16 -1 19 -3 4 -6 -2 -5 -13z"/>
<path d="M1369 5443 c-13 -16 -12 -17 4 -4 9 7 17 15 17 17 0 8 -8 3 -21 -13z"/>
<path d="M922 5340 c0 -14 2 -19 5 -12 2 6 2 18 0 25 -3 6 -5 1 -5 -13z"/>
<path d="M3542 5305 c0 -16 2 -22 5 -12 2 9 2 23 0 30 -3 6 -5 -1 -5 -18z"/>
<path d="M2377 5279 c7 -7 15 -10 18 -7 3 3 -2 9 -12 12 -14 6 -15 5 -6 -5z"/>
<path d="M912 5220 c0 -14 2 -19 5 -12 2 6 2 18 0 25 -3 6 -5 1 -5 -13z"/>
<path d="M2713 5185 c0 -27 2 -38 4 -22 2 15 2 37 0 50 -2 12 -4 0 -4 -28z"/>
<path d="M1994 5198 l-19 -23 23 19 c21 18 27 26 19 26 -2 0 -12 -10 -23 -22z"/>
<path d="M912 5140 c0 -14 2 -19 5 -12 2 6 2 18 0 25 -3 6 -5 1 -5 -13z"/>
<path d="M5110 5045 l0 -105 258 2 257 3 3 103 3 102 -261 0 -260 0 0 -105z"/>
<path d="M1914 5088 l-19 -23 23 19 c21 18 27 26 19 26 -2 0 -12 -10 -23 -22z"/>
<path d="M3542 5065 c0 -16 2 -22 5 -12 2 9 2 23 0 30 -3 6 -5 -1 -5 -18z"/>
<path d="M1716 5053 c-6 -14 -5 -15 5 -6 7 7 10 15 7 18 -3 3 -9 -2 -12 -12z"/>
<path d="M921 5024 c0 -11 3 -14 6 -6 3 7 2 16 -1 19 -3 4 -6 -2 -5 -13z"/>
<path d="M1854 5008 l-19 -23 23 19 c21 18 27 26 19 26 -2 0 -12 -10 -23 -22z"/>
<path d="M932 4970 c0 -14 2 -19 5 -12 2 6 2 18 0 25 -3 6 -5 1 -5 -13z"/>
<path d="M1789 4933 c-13 -16 -12 -17 4 -4 9 7 17 15 17 17 0 8 -8 3 -21 -13z"/>
<path d="M951 4874 c0 -11 3 -14 6 -6 3 7 2 16 -1 19 -3 4 -6 -2 -5 -13z"/>
<path d="M2498 4393 c7 -3 16 -2 19 1 4 3 -2 6 -13 5 -11 0 -14 -3 -6 -6z"/>
<path d="M3256 4372 l-19 -27 24 22 c12 12 21 24 18 27 -2 2 -13 -8 -23 -22z"/>
<path d="M3119 4223 c-13 -16 -12 -17 4 -4 16 13 21 21 13 21 -2 0 -10 -8 -17
-17z"/>
<path d="M3074 4188 l-19 -23 23 19 c21 18 27 26 19 26 -2 0 -12 -10 -23 -22z"/>
<path d="M2965 4104 l-30 -26 33 22 c17 12 32 23 32 26 0 7 -4 5 -35 -22z"/>
<path d="M2088 3883 c6 -2 18 -2 25 0 6 3 1 5 -13 5 -14 0 -19 -2 -12 -5z"/>
<path d="M2328 3883 c7 -3 16 -2 19 1 4 3 -2 6 -13 5 -11 0 -14 -3 -6 -6z"/>
</g>
</svg>
